<?xml version="1.0" encoding="UTF-8"?>
<svg id="Layer_1" xmlns="http://www.w3.org/2000/svg" xmlns:xlink="http://www.w3.org/1999/xlink" version="1.1" viewBox="0 0 561.07 84.47">
  <!-- Generator: Adobe Illustrator 29.0.0, SVG Export Plug-In . SVG Version: 2.1.0 Build 186)  -->
  <defs>
    <style>
      .st0 {
        fill: url(#linear-gradient);
      }

      .st1 {
        fill: #000126;
      }
    </style>
    <linearGradient id="linear-gradient" x1="84.84" y1="42.24" x2="22.78" y2="42.24" gradientUnits="userSpaceOnUse">
      <stop offset="0" stop-color="#003de1"/>
      <stop offset="1" stop-color="#000126"/>
    </linearGradient>
  </defs>
  <g>
    <path class="st1" d="M151.93,41.89c0,1.37-.22,2.76-.67,4.17-.45,1.41-1.08,2.69-1.92,3.83-.83,1.15-1.84,2.1-3.03,2.86-1.19.76-2.54,1.18-4.06,1.25h-32.96c-.74,0-1.37-.26-1.89-.78-.52-.52-.78-1.15-.78-1.89v-18.9c0-.74.26-1.37.78-1.89s1.15-.78,1.89-.78h32.41c1.59,0,3.02.37,4.28,1.11,1.26.74,2.33,1.7,3.22,2.86.89,1.17,1.57,2.46,2.03,3.89.46,1.43.7,2.84.7,4.25ZM111.96,35.11v13.56h28.57c1.26,0,2.3-.23,3.11-.7.81-.46,1.45-1.03,1.92-1.7.46-.67.78-1.4.95-2.19.17-.8.25-1.53.25-2.2s-.08-1.4-.25-2.2c-.17-.8-.48-1.53-.95-2.2-.46-.67-1.1-1.23-1.92-1.7-.82-.46-1.85-.69-3.11-.69h-28.57Z"/>
    <path class="st1" d="M171.16,35.11c-1.3,0-2.34.23-3.14.69-.8.46-1.43,1.03-1.89,1.7-.46.67-.78,1.4-.95,2.2s-.25,1.53-.25,2.2.08,1.4.25,2.2.48,1.53.95,2.19c.46.67,1.09,1.23,1.89,1.7.8.46,1.84.7,3.14.7h30.63c.74,0,1.37.26,1.89.78.52.52.78,1.15.78,1.89s-.26,1.37-.78,1.89c-.52.52-1.15.78-1.89.78h-32.41c-1.52,0-2.87-.37-4.06-1.11-1.19-.74-2.2-1.7-3.03-2.86-.83-1.17-1.47-2.47-1.92-3.92-.44-1.44-.67-2.85-.67-4.23s.23-2.83.7-4.25c.46-1.43,1.14-2.72,2.03-3.89.89-1.17,1.96-2.12,3.22-2.86,1.26-.74,2.69-1.11,4.28-1.11h31.85c.74,0,1.37.26,1.89.78.52.52.78,1.15.78,1.89s-.26,1.37-.78,1.89c-.52.52-1.15.78-1.89.78h-30.63ZM201.35,40c.52.52.78,1.15.78,1.89s-.26,1.37-.78,1.89-1.15.78-1.89.78h-27.68c-.74,0-1.37-.26-1.89-.78-.52-.52-.78-1.15-.78-1.89s.26-1.37.78-1.89,1.15-.78,1.89-.78h27.68c.74,0,1.37.26,1.89.78Z"/>
    <path class="st1" d="M210.86,41.89c0-1.41.23-2.83.7-4.25.46-1.43,1.14-2.72,2.03-3.89.89-1.17,1.96-2.12,3.22-2.86,1.26-.74,2.69-1.11,4.28-1.11h32.41c.74,0,1.37.26,1.89.78.52.52.78,1.15.78,1.89s-.26,1.37-.78,1.89-1.15.78-1.89.78h-31.24c-1.3,0-2.34.23-3.14.69-.8.46-1.43,1.03-1.89,1.7-.46.67-.78,1.4-.95,2.2s-.25,1.53-.25,2.2.08,1.4.25,2.2.48,1.53.95,2.19c.46.67,1.09,1.23,1.89,1.7.8.46,1.84.7,3.14.7h31.24c.74,0,1.37.26,1.89.78.52.52.78,1.15.78,1.89s-.26,1.37-.78,1.89-1.15.78-1.89.78h-32.96c-1.52,0-2.87-.37-4.06-1.11-1.19-.74-2.2-1.7-3.03-2.86-.83-1.17-1.47-2.47-1.92-3.92-.44-1.44-.67-2.85-.67-4.23Z"/>
    <path class="st1" d="M262.55,41.89c0-1.41.23-2.83.7-4.25.46-1.43,1.14-2.72,2.03-3.89.89-1.17,1.96-2.12,3.22-2.86,1.26-.74,2.69-1.11,4.28-1.11h32.41c.74,0,1.37.26,1.89.78.52.52.78,1.15.78,1.89s-.26,1.37-.78,1.89-1.15.78-1.89.78h-31.24c-1.3,0-2.34.23-3.14.69-.8.46-1.43,1.03-1.89,1.7-.46.67-.78,1.4-.95,2.2s-.25,1.53-.25,2.2.08,1.4.25,2.2.48,1.53.95,2.19c.46.67,1.09,1.23,1.89,1.7.8.46,1.84.7,3.14.7h31.24c.74,0,1.37.26,1.89.78.52.52.78,1.15.78,1.89s-.26,1.37-.78,1.89-1.15.78-1.89.78h-32.96c-1.52,0-2.87-.37-4.06-1.11-1.19-.74-2.2-1.7-3.03-2.86-.83-1.17-1.47-2.47-1.92-3.92-.44-1.44-.67-2.85-.67-4.23Z"/>
    <path class="st1" d="M320.37,53.01c-.56.67-1.24,1-2.06,1-.74,0-1.37-.26-1.89-.78-.52-.52-.78-1.15-.78-1.89,0-.67.19-1.2.56-1.61l13.51-18.18c.63-.85,1.46-1.55,2.5-2.08,1.04-.54,2.15-.81,3.34-.81,1.11,0,2.17.24,3.17.72,1,.48,1.82,1.15,2.45,2l13.51,18.07c.22.26.41.55.56.86.15.32.22.66.22,1.03,0,.74-.26,1.37-.78,1.89s-1.15.78-1.89.78c-.89,0-1.59-.35-2.11-1.06l-12.95-17.29c-.26-.3-.58-.62-.97-.97-.39-.35-.79-.53-1.2-.53s-.81.18-1.2.53c-.39.35-.7.68-.92.97l-13.06,17.34ZM332.1,48.01c0-.96.33-1.78,1-2.45.67-.67,1.48-1,2.45-1s1.78.33,2.45,1c.67.67,1,1.48,1,2.45s-.33,1.78-1,2.45c-.67.67-1.48,1-2.45,1s-1.78-.33-2.45-1c-.67-.67-1-1.48-1-2.45Z"/>
    <path class="st1" d="M407.09,41.89c0,1.41-.23,2.83-.7,4.25-.46,1.43-1.14,2.72-2.03,3.89-.89,1.17-1.96,2.12-3.22,2.86-1.26.74-2.69,1.11-4.28,1.11h-25.35c-1.52-.07-2.87-.49-4.06-1.25-1.19-.76-2.2-1.71-3.03-2.86-.83-1.15-1.47-2.43-1.92-3.83-.44-1.41-.67-2.8-.67-4.17s.23-2.83.7-4.25c.46-1.43,1.14-2.72,2.03-3.89.89-1.17,1.96-2.12,3.22-2.86,1.26-.74,2.69-1.11,4.28-1.11h25.35c1.52.08,2.87.49,4.06,1.25,1.19.76,2.2,1.71,3.03,2.86.83,1.15,1.47,2.43,1.92,3.84.44,1.41.67,2.8.67,4.17ZM398.8,47.98c.81-.46,1.45-1.03,1.92-1.7.46-.67.78-1.4.95-2.19.17-.8.25-1.53.25-2.2s-.08-1.4-.25-2.2c-.17-.8-.48-1.53-.95-2.2-.46-.67-1.1-1.23-1.92-1.7-.82-.46-1.85-.69-3.11-.69h-22.46c-1.3,0-2.34.23-3.14.69-.8.46-1.43,1.03-1.89,1.7-.46.67-.78,1.4-.95,2.2s-.25,1.53-.25,2.2.08,1.4.25,2.2.48,1.53.95,2.19c.46.67,1.09,1.23,1.89,1.7.8.46,1.84.7,3.14.7h22.46c1.26,0,2.3-.23,3.11-.7Z"/>
    <path class="st1" d="M420.45,44.09c.17.8.48,1.53.95,2.19.46.67,1.09,1.23,1.89,1.7.8.46,1.84.7,3.14.7h22.12c1.26,0,2.3-.23,3.11-.7.82-.46,1.45-1.03,1.92-1.7.46-.67.78-1.4.95-2.19s.25-1.53.25-2.2v-9.45c0-.74.26-1.37.78-1.89s1.15-.78,1.89-.78,1.37.26,1.89.78c.52.52.78,1.15.78,1.89v9.45c0,1.41-.23,2.83-.7,4.25-.46,1.43-1.14,2.72-2.03,3.89-.89,1.17-1.96,2.12-3.22,2.86-1.26.74-2.69,1.11-4.28,1.11h-25.35c-1.52-.07-2.87-.49-4.06-1.25-1.19-.76-2.2-1.71-3.03-2.86-.83-1.15-1.47-2.43-1.92-3.83-.44-1.41-.67-2.8-.67-4.17v-9.45c0-.74.26-1.37.78-1.89s1.15-.78,1.89-.78,1.37.26,1.89.78c.52.52.78,1.15.78,1.89v9.45c0,.67.08,1.4.25,2.2Z"/>
    <path class="st1" d="M505.5,39.7c-.17-.8-.48-1.53-.95-2.2-.46-.67-1.1-1.23-1.92-1.7-.82-.46-1.85-.69-3.11-.69h-20.07c-1.3,0-2.34.23-3.14.69-.8.46-1.43,1.03-1.89,1.7-.46.67-.78,1.4-.95,2.2s-.25,1.53-.25,2.2v9.45c0,.74-.26,1.37-.78,1.89s-1.15.78-1.89.78-1.37-.26-1.89-.78c-.52-.52-.78-1.15-.78-1.89v-9.45c0-1.41.23-2.83.7-4.25.46-1.43,1.14-2.72,2.03-3.89.89-1.17,1.96-2.12,3.22-2.86,1.26-.74,2.69-1.11,4.28-1.11h23.29c1.52.08,2.87.49,4.06,1.25,1.19.76,2.2,1.71,3.03,2.86.83,1.15,1.47,2.43,1.92,3.84.45,1.41.67,2.8.67,4.17v9.45c0,.74-.26,1.37-.78,1.89s-1.15.78-1.89.78-1.37-.26-1.89-.78c-.52-.52-.78-1.15-.78-1.89v-9.45c0-.67-.08-1.4-.25-2.2Z"/>
    <path class="st1" d="M558.4,29.77c.74,0,1.37.26,1.89.78.52.52.78,1.15.78,1.89s-.24,1.31-.72,1.81c-.48.5-1.06.79-1.72.86h-11.17c-1.11.07-2.03.34-2.75.81-.72.46-1.29,1.03-1.7,1.7-.41.67-.69,1.39-.83,2.17-.15.78-.22,1.48-.22,2.11v9.45c0,.74-.26,1.37-.78,1.89-.52.52-1.15.78-1.89.78s-1.37-.26-1.89-.78c-.52-.52-.78-1.15-.78-1.89v-9.45c0-1.15.15-2.31.44-3.47.3-1.17.74-2.27,1.33-3.31h-18.23c-.74,0-1.37-.26-1.89-.78-.52-.52-.78-1.15-.78-1.89s.26-1.37.78-1.89,1.15-.78,1.89-.78h38.25Z"/>
  </g>
  <path class="st0" d="M78.89,12.48C70.9,4.43,60.26,0,48.91,0h-10.93c-3.25,0-5.89,2.64-5.89,5.89s2.64,5.89,5.89,5.89h10.93c8.18,0,15.85,3.2,21.62,9,5.76,5.8,8.9,13.51,8.84,21.69-.12,16.67-13.99,30.22-30.91,30.22h-25.87l2.84-10.28h23.19c10.99,0,20.17-8.8,20.47-19.61.15-5.5-1.88-10.69-5.71-14.63-3.83-3.94-8.97-6.11-14.46-6.11H5.89c-3.25,0-5.89,2.64-5.89,5.89s2.64,5.89,5.89,5.89h43.03c2.29,0,4.43.9,6.02,2.54,1.59,1.64,2.44,3.8,2.37,6.1-.12,4.5-4.02,8.16-8.69,8.16h-27.67s-.04,0-.07,0c-.13,0-.26,0-.39.02-.07,0-.13,0-.2.02-.12.01-.24.03-.36.05-.08.01-.16.03-.23.04-.1.02-.2.05-.29.08-.09.02-.18.05-.27.08-.08.03-.16.06-.24.09-.1.04-.2.07-.3.12-.07.03-.14.07-.21.1-.1.05-.2.1-.29.15-.07.04-.14.09-.22.13-.09.05-.17.11-.26.16-.08.06-.16.12-.24.18-.07.05-.14.1-.21.16-.09.07-.17.15-.25.23-.05.05-.11.1-.16.15-.08.08-.16.18-.24.27-.05.05-.09.1-.14.16-.07.09-.14.18-.21.28-.05.06-.09.12-.13.19-.06.08-.11.17-.16.26-.05.08-.1.16-.14.25-.04.07-.07.15-.11.23-.05.1-.1.21-.14.32-.03.06-.05.13-.07.2-.04.12-.09.24-.12.37,0,.02-.02.04-.02.07l-6.1,22.06s-.02.1-.03.14c-.03.12-.06.24-.08.36-.02.09-.03.18-.04.28-.01.1-.03.19-.03.29-.01.12-.01.24-.02.35,0,.05,0,.1,0,.15,0,.02,0,.05,0,.07,0,.13,0,.25.02.38,0,.07,0,.15.02.22.01.11.03.22.05.34.01.08.03.17.05.25.02.09.05.18.07.27.03.1.05.2.08.29.02.07.05.15.08.22.04.11.08.21.12.32.03.07.06.13.09.19.05.11.1.21.16.31.04.07.08.13.12.2.06.09.11.19.17.27.05.08.11.15.17.22.06.07.11.15.17.22.07.08.15.16.22.24.05.06.1.11.16.17.08.08.17.16.26.24.05.05.11.1.16.14.09.07.18.14.27.2.06.05.13.09.19.14.08.06.17.11.26.16.08.05.16.1.25.14.07.04.15.07.23.11.1.05.21.1.32.14.06.03.13.05.2.07.12.04.24.09.37.12.02,0,.04.02.07.02.1.03.2.05.3.07.04,0,.08.02.12.03.17.03.33.06.5.08.04,0,.08,0,.11.01.18.02.37.03.55.03.01,0,.02,0,.03,0h33.58c23.37,0,42.52-18.8,42.69-41.91.08-11.34-4.27-22.02-12.26-30.07Z"/>
</svg>